<svg width="112" height="22" viewBox="0 0 112 22" fill="none" xmlns="http://www.w3.org/2000/svg">
<g clip-path="url(#clip0_4070_16971)">
<path d="M14.1547 0.394531H7.07725C3.18801 0.394531 0.0351562 3.54738 0.0351562 7.43662V14.5141C0.0351562 18.4033 3.18801 21.5562 7.07725 21.5562H14.1547C18.044 21.5562 21.1968 18.4033 21.1968 14.5141V7.43662C21.1968 3.54738 18.044 0.394531 14.1547 0.394531Z" fill="#EEEEEE" stroke="#DEDEDE" stroke-width="0.37915"/>
<mask id="mask0_4070_16971" style="mask-type:luminance" maskUnits="userSpaceOnUse" x="8" y="8" width="5" height="5">
<path d="M12.5981 10.9739C12.5981 9.87942 11.7109 8.99219 10.6165 8.99219C9.522 8.99219 8.63477 9.87942 8.63477 10.9739C8.63477 12.0683 9.522 12.9556 10.6165 12.9556C11.7109 12.9556 12.5981 12.0683 12.5981 10.9739Z" fill="white"/>
</mask>
<g mask="url(#mask0_4070_16971)">
<path d="M10.6165 12.9556C11.7109 12.9556 12.5981 12.0683 12.5981 10.9739C12.5981 9.87942 11.7109 8.99219 10.6165 8.99219C9.522 8.99219 8.63477 9.87942 8.63477 10.9739C8.63477 12.0683 9.522 12.9556 10.6165 12.9556Z" fill="#5B5B5B"/>
<path d="M13.655 9.77099C13.655 10.7265 12.8945 11.2573 11.9564 11.2573C11.0183 11.2573 10.2578 10.4968 10.2578 9.55867C10.2578 8.62056 11.2306 7.75391 12.1687 7.75391C13.1068 7.75391 13.655 8.8329 13.655 9.77099Z" fill="#5DD300"/>
</g>
<path d="M20.03 10.9045C20.0302 10.9282 20.0302 10.9519 20.0302 10.9755H13.0184C13.0184 10.6602 12.9563 10.348 12.8356 10.0566C12.715 9.7653 12.5381 9.50058 12.3151 9.27761C12.0922 9.05464 11.8274 8.87775 11.5361 8.75709C11.2448 8.63641 10.9325 8.57431 10.6172 8.57431V1.5625C10.6409 1.5625 10.6646 1.56259 10.6882 1.56277L10.688 1.5625H13.6605C17.1784 1.5625 20.0302 4.41433 20.0302 7.93223V10.9048L20.03 10.9045Z" fill="#5DD300"/>
<path d="M28.0273 6.41481H31.4669C32.4011 6.41481 33.1183 6.65072 33.6184 7.12254C34.128 7.58493 34.3828 8.21717 34.3828 9.01926C34.3828 9.58544 34.2413 10.0384 33.9581 10.3781C33.6845 10.7178 33.2928 10.9632 32.7832 11.1141V11.1849C33.3778 11.3265 33.8448 11.586 34.1845 11.9634C34.5338 12.3315 34.7083 12.8552 34.7083 13.5346C34.7083 13.9498 34.6376 14.3273 34.4961 14.667C34.3639 14.9972 34.1704 15.285 33.9157 15.5304C33.6703 15.7758 33.3684 15.9645 33.0099 16.0966C32.6606 16.2287 32.2643 16.2947 31.8208 16.2947H28.0273V6.41481ZM31.2546 14.95C31.7736 14.95 32.1605 14.8557 32.4153 14.667C32.6794 14.4688 32.8116 14.1338 32.8116 13.662V13.1949C32.8116 12.7325 32.6794 12.4069 32.4153 12.2182C32.1605 12.02 31.7736 11.921 31.2546 11.921H29.8391V14.95H31.2546ZM31.014 10.6329C31.5141 10.6329 31.8822 10.5432 32.118 10.3639C32.3634 10.1847 32.4861 9.87326 32.4861 9.42974V8.96264C32.4861 8.51912 32.3634 8.20772 32.118 8.02843C31.8822 7.84914 31.5141 7.7595 31.014 7.7595H29.8391V10.6329H31.014ZM36.4014 14.8651H38.7228V7.24992H36.4014V5.82031H40.5346V14.8651H42.87V16.2947H36.4014V14.8651ZM48.1159 16.4646C47.5592 16.4646 47.0589 16.3749 46.6154 16.1957C46.1814 16.0164 45.8086 15.7616 45.4973 15.4313C45.1953 15.101 44.9593 14.7 44.7894 14.2282C44.6291 13.7564 44.5488 13.2279 44.5488 12.6428C44.5488 12.0578 44.6291 11.5293 44.7894 11.0575C44.9593 10.5857 45.1953 10.1847 45.4973 9.85438C45.8086 9.52412 46.1814 9.26932 46.6154 9.09004C47.0589 8.91075 47.5592 8.82109 48.1159 8.82109C48.6632 8.82109 49.1586 8.91075 49.6021 9.09004C50.0456 9.26932 50.4184 9.52412 50.7204 9.85438C51.0318 10.1847 51.2677 10.5857 51.4281 11.0575C51.5979 11.5293 51.6829 12.0578 51.6829 12.6428C51.6829 13.2279 51.5979 13.7564 51.4281 14.2282C51.2677 14.7 51.0318 15.101 50.7204 15.4313C50.4184 15.7616 50.0456 16.0164 49.6021 16.1957C49.1586 16.3749 48.6632 16.4646 48.1159 16.4646ZM48.1159 15.0774C48.6348 15.0774 49.0454 14.9218 49.3473 14.6103C49.6493 14.2895 49.8003 13.8224 49.8003 13.209V12.0767C49.8003 11.4633 49.6493 11.0009 49.3473 10.6895C49.0454 10.3687 48.6348 10.2082 48.1159 10.2082C47.5969 10.2082 47.1864 10.3687 46.8844 10.6895C46.5824 11.0009 46.4316 11.4633 46.4316 12.0767V13.209C46.4316 13.8224 46.5824 14.2895 46.8844 14.6103C47.1864 14.9218 47.5969 15.0774 48.1159 15.0774ZM56.8862 16.4646C56.3296 16.4646 55.8293 16.3749 55.3858 16.1957C54.9422 16.0164 54.5648 15.7616 54.2535 15.4313C53.9514 15.101 53.7157 14.7 53.5458 14.2282C53.3853 13.7564 53.3052 13.2279 53.3052 12.6428C53.3052 12.0578 53.3853 11.5293 53.5458 11.0575C53.7157 10.5857 53.9514 10.1847 54.2535 9.85438C54.5648 9.52412 54.9376 9.26932 55.3716 9.09004C55.8151 8.91075 56.3154 8.82109 56.872 8.82109C57.6459 8.82109 58.2687 8.98151 58.7405 9.30236C59.2123 9.6232 59.5708 10.0478 59.8163 10.5763L58.415 11.3406C58.2828 11.0292 58.0941 10.7792 57.8486 10.5904C57.6129 10.3923 57.2873 10.2932 56.872 10.2932C56.3342 10.2932 55.9191 10.4489 55.6264 10.7603C55.3434 11.0717 55.2019 11.4963 55.2019 12.0342V13.2515C55.2019 13.7799 55.3434 14.2046 55.6264 14.5254C55.9191 14.8368 56.3436 14.9925 56.9004 14.9925C57.3344 14.9925 57.679 14.8934 57.9336 14.6953C58.1979 14.4971 58.4101 14.2329 58.5707 13.9026L59.9294 14.7094C59.6841 15.2284 59.3114 15.6531 58.8113 15.9833C58.3205 16.3042 57.679 16.4646 56.8862 16.4646ZM61.9338 5.82031H63.7456V11.9634H63.8306L64.8921 10.8027L66.6899 8.99096H68.7989L65.8972 11.8643L69.1103 16.2947H66.9447L64.6092 12.8976L63.7456 13.7186V16.2947H61.9338V5.82031ZM70.3928 14.8651H72.2046V10.4206H70.3928V8.99096H74.0164V10.9868H74.1297C74.1958 10.732 74.2854 10.4866 74.3987 10.2507C74.5213 10.0054 74.6724 9.79305 74.8516 9.61375C75.0403 9.42503 75.2667 9.27404 75.531 9.16081C75.7952 9.04757 76.1114 8.99096 76.4793 8.99096H77.2721V10.6895H75.7716C75.2243 10.6895 74.795 10.8499 74.4835 11.1708C74.1721 11.4916 74.0164 11.9021 74.0164 12.4022V14.8651H76.55V16.2947H70.3928V14.8651ZM84.7542 16.2947C84.3107 16.2947 83.9663 16.1862 83.721 15.9692C83.4851 15.7427 83.3436 15.4313 83.2964 15.035H83.2256C83.0934 15.4879 82.834 15.8418 82.447 16.0966C82.0602 16.3419 81.5837 16.4646 81.0175 16.4646C80.2815 16.4646 79.6963 16.2712 79.2623 15.8843C78.8281 15.4974 78.6112 14.9595 78.6112 14.2706C78.6112 12.7985 79.6916 12.0625 81.8525 12.0625H83.1407V11.5813C83.1407 11.1189 83.0274 10.7697 82.8009 10.5338C82.5745 10.2979 82.2064 10.1799 81.6968 10.1799C81.2344 10.1799 80.8617 10.2696 80.5787 10.4489C80.2955 10.6282 80.0549 10.8594 79.8568 11.1425L78.8235 10.2649C79.0499 9.85911 79.4133 9.51939 79.9134 9.24574C80.423 8.96264 81.0788 8.82109 81.8809 8.82109C82.8433 8.82109 83.5935 9.04757 84.1315 9.50052C84.6788 9.94402 84.9525 10.6093 84.9525 11.4963V14.9359H85.8158V16.2947H84.7542ZM81.6261 15.219C82.0602 15.219 82.4188 15.1199 82.7018 14.9217C82.9943 14.7141 83.1407 14.4358 83.1407 14.0866V13.1099H81.8951C80.9042 13.1099 80.4088 13.4214 80.4088 14.0442V14.3273C80.4088 14.6198 80.5173 14.8415 80.7344 14.9925C80.9515 15.1435 81.2486 15.219 81.6261 15.219ZM92.0101 15.0067H91.911C91.7128 15.4502 91.4391 15.804 91.0901 16.0683C90.7503 16.3325 90.2973 16.4646 89.7311 16.4646C89.316 16.4646 88.9339 16.3891 88.5846 16.2381C88.2449 16.0777 87.9524 15.8418 87.7071 15.5304C87.4616 15.2096 87.2729 14.8085 87.1409 14.3273C87.0088 13.846 86.9427 13.2845 86.9427 12.6428C86.9427 11.3595 87.1975 10.4017 87.7071 9.76945C88.2167 9.13721 88.8913 8.82109 89.7311 8.82109C90.2973 8.82109 90.7503 8.9532 91.0901 9.21742C91.4391 9.48165 91.7128 9.83551 91.911 10.279H92.0101V5.82031H93.8219V16.2947H92.0101V15.0067ZM90.4955 15.0208C90.7031 15.0208 90.8967 14.9972 91.0759 14.95C91.2646 14.8934 91.4249 14.8179 91.5571 14.7236C91.6986 14.6198 91.8072 14.4924 91.8827 14.3414C91.9676 14.181 92.0101 13.997 92.0101 13.7894V11.4963C92.0101 11.2887 91.9676 11.1094 91.8827 10.9584C91.8072 10.798 91.6986 10.6706 91.5571 10.5763C91.4249 10.4725 91.2646 10.397 91.0759 10.3498C90.8967 10.2932 90.7031 10.2649 90.4955 10.2649C89.9671 10.2649 89.5566 10.4253 89.2641 10.7461C88.9809 11.067 88.8394 11.5057 88.8394 12.0625V13.2232C88.8394 13.7799 88.9809 14.2187 89.2641 14.5396C89.5566 14.8604 89.9671 15.0208 90.4955 15.0208ZM101.729 16.2947C101.285 16.2947 100.941 16.1862 100.696 15.9692C100.46 15.7427 100.318 15.4313 100.271 15.035H100.2C100.068 15.4879 99.8085 15.8418 99.4216 16.0966C99.0348 16.3419 98.5582 16.4646 97.9921 16.4646C97.2558 16.4646 96.6708 16.2712 96.2368 15.8843C95.8027 15.4974 95.5857 14.9595 95.5857 14.2706C95.5857 12.7985 96.6662 12.0625 98.827 12.0625H100.115V11.5813C100.115 11.1189 100.002 10.7697 99.7755 10.5338C99.549 10.2979 99.1809 10.1799 98.6713 10.1799C98.209 10.1799 97.8362 10.2696 97.5532 10.4489C97.27 10.6282 97.0294 10.8594 96.8314 11.1425L95.798 10.2649C96.0244 9.85911 96.3878 9.51939 96.8879 9.24574C97.3975 8.96264 98.0533 8.82109 98.8554 8.82109C99.8178 8.82109 100.568 9.04757 101.106 9.50052C101.653 9.94402 101.927 10.6093 101.927 11.4963V14.9359H102.79V16.2947H101.729ZM98.6006 15.219C99.0348 15.219 99.3934 15.1199 99.6764 14.9217C99.9689 14.7141 100.115 14.4358 100.115 14.0866V13.1099H98.8696C97.8788 13.1099 97.3833 13.4214 97.3833 14.0442V14.3273C97.3833 14.6198 97.4918 14.8415 97.7089 14.9925C97.926 15.1435 98.2232 15.219 98.6006 15.219ZM104.342 14.8651H106.154V10.4206H104.342V8.99096H107.965V10.9868H108.079C108.145 10.732 108.234 10.4866 108.348 10.2507C108.47 10.0054 108.621 9.79305 108.801 9.61375C108.989 9.42503 109.216 9.27404 109.48 9.16081C109.744 9.04757 110.06 8.99096 110.428 8.99096H111.221V10.6895H109.721C109.173 10.6895 108.744 10.8499 108.433 11.1708C108.121 11.4916 107.965 11.9021 107.965 12.4022V14.8651H110.499V16.2947H104.342V14.8651Z" fill="#EEEEEE"/>
</g>
<defs>
<clipPath id="clip0_4070_16971">
<rect width="112" height="21.28" fill="white" transform="translate(0 0.359375)"/>
</clipPath>
</defs>
</svg>
