<svg width="96" height="29" viewBox="0 0 96 29" fill="none" xmlns="http://www.w3.org/2000/svg">
<g opacity="0.48" clip-path="url(#clip0_367_17295)">
<path d="M7.18091 11.1584L6.9737 1.14116H0.861328V27.3791H7.18091V17.0568C7.33631 9.07357 10.4443 6.48028 18.7841 5.9718V0.734375C11.3249 0.734375 8.5795 3.53105 7.3881 11.1584H7.18091Z" fill="white"/>
<path d="M21.6426 27.3786H27.9622V1.14062H21.6426V27.3786Z" fill="white"/>
<path d="M44.3281 28.1932C51.8907 28.1932 56.3455 25.1423 56.3455 20.0066C56.3455 16.0912 53.8073 13.8539 48.5755 12.7352L41.5309 11.2606C39.3035 10.7521 38.0603 9.63343 38.0603 8.20967C38.0603 6.12488 40.1841 4.85365 43.7065 4.85365C47.5913 4.85365 49.8705 6.68421 49.8705 9.68428H55.9311C55.9311 3.78583 51.3209 0.328125 43.4993 0.328125C36.3509 0.328125 31.8443 3.48074 31.8443 8.36222C31.8443 12.3284 34.7969 14.82 39.6661 15.7861L46.3999 17.2099C49.1453 17.82 50.0777 18.6845 50.0777 20.2608C50.0777 22.3965 47.9021 23.6677 44.3797 23.6677C40.0805 23.6677 37.6459 21.9388 37.4387 18.837H31.2227C31.4299 24.8371 36.0919 28.1932 44.3281 28.1932Z" fill="white"/>
<path d="M85.0091 13.3962C85.0091 6.17573 79.9845 0.328125 71.8001 0.328125C63.5639 0.328125 58.125 5.61638 58.125 14.159C58.125 23.4135 63.6675 28.1932 72.1109 28.1932C78.0679 28.1932 83.9731 24.6847 84.8019 18.2269H79.0521C78.3787 21.1761 75.8405 23.3626 72.1109 23.3626C67.5525 23.3626 64.3409 20.515 64.1855 15.4302H85.0091V13.3962ZM71.5411 5.15875C75.7369 5.15875 78.4823 7.70118 78.7931 11.9216H64.1855C64.4963 7.44694 67.6043 5.15875 71.5411 5.15875Z" fill="white"/>
<path d="M95.3582 4.22293C95.3582 6.44732 93.5212 8.25055 91.2553 8.25055C88.9893 8.25055 87.1523 6.44732 87.1523 4.22293C87.1523 1.99854 88.9893 0.195312 91.2553 0.195312C93.5212 0.195312 95.3582 1.99854 95.3582 4.22293Z" fill="white"/>
</g>
<defs>
<clipPath id="clip0_367_17295">
<rect width="94.5" height="28" fill="white" transform="translate(0.861328 0.195312)"/>
</clipPath>
</defs>
</svg>
